<svg width="9" height="9" viewBox="0 0 9 9" fill="none" xmlns="http://www.w3.org/2000/svg">
<circle cx="4.27407" cy="4.38149" r="4.08462" fill="#373737"/>
<g clip-path="url(#clip0_858_253)">
<path fill-rule="evenodd" clip-rule="evenodd" d="M3.26655 3.21073C2.97331 3.10809 2.85756 2.8438 2.82534 2.67996C2.74827 2.28801 3.04614 2.01383 3.4258 1.97374C3.80545 1.93365 3.97054 2.14686 4.00042 2.19529C4.08497 2.33235 4.08826 2.52261 4.08826 2.70056C4.16102 2.60922 4.16948 2.41167 4.1313 2.2414C4.42762 2.25692 4.59087 2.33423 4.75756 2.46758C4.92997 2.6055 4.98402 2.68947 5.09896 3.27566C5.18404 3.70957 5.15254 4.50997 5.35263 4.78403C5.55273 5.05809 6.01182 5.36926 6.12046 4.70096C6.15997 4.45788 6.20607 4.17426 6.2819 4.00995C6.41983 3.71111 6.68084 3.62601 7.30474 3.56602C7.65706 3.53215 7.65515 3.17505 7.65411 2.97942C7.65405 2.96926 7.654 2.95953 7.654 2.95031C8.09662 3.38709 7.61969 4.03395 7.03479 4.10594C6.58505 4.16129 6.60597 4.47245 6.62691 4.78403C6.63458 4.89806 6.64225 5.01215 6.62685 5.11378C6.56938 5.49308 6.51791 5.60962 6.17897 5.70861C6.32059 5.7256 7.0004 6.27121 7.78449 6.37549C8.59126 6.48277 9.50576 6.15072 9.86523 6.30973C10.5741 6.62327 10.5715 6.66667 11.1914 6.57088C10.8811 6.9042 10.4777 6.93051 9.92756 6.80937C9.37743 6.68823 8.24361 6.93836 7.5527 6.91144C6.86179 6.88453 6.38028 6.50711 5.75629 6.25675C5.13231 6.00638 4.79937 5.67559 4.51218 5.43511C4.39069 6.02196 6.551 6.95725 7.30474 7.5529C6.01655 7.70539 5.34672 7.00422 4.51218 6.53989C3.67765 6.07556 3.73157 5.86674 3.73157 5.48891C2.93813 7.06966 4.29405 6.4154 4.03551 7.70539C3.9315 8.28354 3.49803 8.4437 3.19206 9.07074C3.00546 8.48582 3.68587 8.027 3.72688 7.41227C3.72688 7.36803 3.72688 7.26966 3.72688 7.22829C3.71115 7.22829 3.50048 7.22829 3.41862 7.22829C3.14932 7.02732 2.59796 6.85175 2.69316 6.53989C2.78836 6.22803 2.79642 6.08788 3.10188 5.53086C2.88532 5.67042 2.55037 6.10008 2.18587 6.53989C1.82137 6.97969 1.74932 7.06152 0.966634 7.24162C0.597709 7.32651 -0.8027 7.27601 -0.923324 7.5529C-0.769812 6.72238 0.00138061 7.11576 1.12007 6.53989C1.75087 6.21517 2.10497 5.63557 2.29429 5.43511C2.57625 5.13656 3.45013 4.69789 3.0697 4.0959C3.0697 5.28764 1.98442 5.24001 1.55507 5.00555C1.12572 4.77108 0.902529 4.42436 0.98756 3.74339C1.09287 2.89999 1.90401 2.53618 2.64889 2.42621C2.64061 2.65276 2.82534 3.21073 3.26655 3.21073ZM3.89126 2.46758C3.92132 2.81545 3.73846 3.15555 3.29775 3.01608C3.06311 2.94183 2.89526 2.52944 3.17003 2.28324C3.37962 2.09544 3.86121 2.11971 3.89126 2.46758Z" fill="#FFF6E9"/>
</g>
<g clip-path="url(#clip1_858_253)">
<rect width="6.53832" height="6.53832" rx="3.26916" transform="matrix(-1 0 0 1 7.54492 1.11328)" fill="#FFF6E9"/>
<path d="M4.91696 3.05792C5.0118 3.14491 5.73399 2.90361 5.40489 2.21999C5.28398 1.96884 4.93934 1.94728 4.7596 2.10025C4.45033 2.32182 4.57546 2.55427 4.60836 2.72655C4.64125 2.89883 4.82715 2.97554 4.91696 3.05792Z" fill="#373737"/>
<path fill-rule="evenodd" clip-rule="evenodd" d="M2.92343 2.95031C2.82729 2.76152 2.85951 2.8438 2.82729 2.67996C2.75023 2.28801 3.0481 2.01383 3.42775 1.97374C3.8074 1.93365 3.97249 2.14686 4.00237 2.19529C4.08692 2.33235 4.09021 2.52261 4.09021 2.70056C4.16297 2.60922 4.17144 2.41167 4.13325 2.2414C4.42958 2.25692 4.59282 2.33423 4.75951 2.46758C4.93192 2.6055 4.98597 2.68947 5.10091 3.27566C5.18599 3.70957 5.15449 4.50997 5.35459 4.78403C5.55468 5.05809 6.01378 5.36926 6.12241 4.70096C6.16192 4.45788 6.20802 4.17426 6.28386 4.00995C6.42178 3.71111 6.68279 3.62601 7.3067 3.56602C7.65902 3.53215 7.65711 3.17505 7.65606 2.97942C7.656 2.96926 7.65595 2.95953 7.65595 2.95031C8.09857 3.38709 7.62165 4.03395 7.03674 4.10594C6.587 4.16129 6.60792 4.47245 6.62887 4.78403C6.63653 4.89806 6.6442 5.01215 6.6288 5.11378C6.57133 5.49308 6.51987 5.60962 6.18092 5.70861C6.32254 5.7256 7.00235 6.27121 7.78644 6.37549C8.59321 6.48277 9.50771 6.15072 9.86718 6.30973C10.576 6.62327 10.5735 6.66667 11.1934 6.57088C10.883 6.9042 10.4796 6.93051 9.92951 6.80937C9.37939 6.68823 8.24556 6.93836 7.55465 6.91144C6.86374 6.88452 6.38223 6.50711 5.75824 6.25675C5.13426 6.00638 4.80132 5.67559 4.51414 5.43511C4.39264 6.02196 6.55295 6.95725 7.3067 7.5529C6.0185 7.70539 5.34867 7.00422 4.51414 6.53989C3.6796 6.07556 3.73353 5.86674 3.73353 5.48891C2.94008 7.06966 3.78632 6.61607 4.7469 7.5529C5.70748 8.48974 3.49998 8.4437 3.19402 9.07074C3.03574 8.5746 3.88549 7.50588 3.42057 7.22829C2.95565 6.9507 2.59991 6.85175 2.69511 6.53989C2.79031 6.22803 2.79838 6.08788 3.10383 5.53086C2.88727 5.67042 2.55233 6.10008 2.18782 6.53989C1.82332 6.97969 1.75128 7.06152 0.968587 7.24162C0.599662 7.32651 -0.800748 7.27601 -0.921371 7.5529C-0.767859 6.72238 0.00333312 7.11576 1.12202 6.53989C1.75282 6.21517 2.10692 5.63557 2.29624 5.43511C2.5782 5.13656 3.45209 4.69789 3.07165 4.0959C3.07165 5.28764 1.98637 5.24001 1.55702 5.00555C1.12767 4.77108 0.904482 4.42436 0.989512 3.74339C1.09482 2.89999 1.93852 2.52991 2.6834 2.41994C2.67513 2.64649 2.69263 2.79384 2.92343 2.95031Z" fill="#373737"/>
<path d="M3.33766 2.92202C3.67828 3.02981 3.81961 2.76695 3.79638 2.49809C3.77316 2.22922 3.40093 2.21046 3.23895 2.35561C3.02658 2.5459 3.15631 2.86463 3.33766 2.92202Z" fill="#FFF6E9"/>
<path d="M5.01584 2.87437C5.14768 2.80238 5.28722 2.70577 5.26769 2.49894C5.24817 2.29212 4.92187 2.10674 4.72723 2.48053C4.89837 2.62139 4.97735 2.76317 5.01584 2.87437Z" fill="#FFF6E9"/>
</g>
<defs>
<clipPath id="clip0_858_253">
<rect width="5.40053" height="2.98269" fill="white" transform="translate(2.5918 2.37305)"/>
</clipPath>
<clipPath id="clip1_858_253">
<rect width="6.53832" height="6.53832" rx="3.26916" transform="matrix(-1 0 0 1 7.54492 1.11328)" fill="white"/>
</clipPath>
</defs>
</svg>
