<svg width="83" height="57" viewBox="0 0 83 57" fill="none" xmlns="http://www.w3.org/2000/svg">
<path fill-rule="evenodd" clip-rule="evenodd" d="M9.7697 0.489746V36.7058H8.25116L6.12521 26.7556V10.439L8.25116 0.489746H9.7697Z" fill="#FFEDE3"/>
<path fill-rule="evenodd" clip-rule="evenodd" d="M5.37779 47.1136V17.3462C5.37779 17.3462 2.8616 16.6866 2.8616 20.267V47.1136H1.32181L0.601562 49.0255V50.4193H10.3881V48.688L7.75649 47.1136H5.37779Z" fill="#FFEDE3"/>
<path d="M47.1536 39.0446C47.1536 39.0446 48.5542 40.5283 48.9767 40.7403C49.3992 40.9522 44.7833 44.3478 47.1536 47.3839C49.5239 50.4199 50.8744 44.9887 50.0982 43.3363C50.0982 43.3363 52.8129 45.9739 51.5497 48.2893C50.2865 50.6048 49.3389 51.144 46.2009 49.8477C43.0629 48.5513 44.0821 44.5905 44.3447 43.5907C44.6074 42.5909 44.8342 41.5822 47.1536 39.0446Z" fill="#FFEDE3"/>
<path d="M26.0477 41.3804C26.0477 41.3804 28.1177 36.8869 32.1448 36.1409L34.9341 35.8017C34.9341 35.8017 35.891 35.2515 36.7793 35.4202C37.6675 35.5889 40.4271 35.4312 40.5815 32.5639C40.7512 29.4269 40.0725 25.4251 40.0725 25.4251C40.0725 25.4251 39.0774 32.8114 35.1793 33.1658C31.2811 33.5202 29.4648 32.7419 27.6646 35.577C25.8645 38.4122 26.0477 41.3804 26.0477 41.3804Z" fill="#FFEDE3"/>
<path d="M48.6237 27.7675C48.6237 27.754 48.6237 27.7379 48.6178 27.7252L48.6237 27.7675Z" fill="#FFEDE3"/>
<path fill-rule="evenodd" clip-rule="evenodd" d="M48.6988 27.7653C48.6988 27.7661 48.6988 27.7669 48.6988 27.7675H48.5487C48.5487 27.764 48.5487 27.7614 48.5486 27.7589C48.5485 27.7565 48.5484 27.7548 48.5483 27.7536C48.5482 27.7528 48.5482 27.7524 48.5482 27.7524C48.5482 27.7524 48.5482 27.7525 48.5482 27.7526C48.5483 27.7531 48.5487 27.7547 48.5498 27.757L48.6858 27.6934C48.6992 27.722 48.6989 27.7536 48.6988 27.7653Z" fill="#FFEDE3"/>
<path d="M51.8509 25.091C51.8449 25.0837 51.8398 25.0758 51.8357 25.0674L51.8509 25.091Z" fill="#FFEDE3"/>
<path fill-rule="evenodd" clip-rule="evenodd" d="M51.903 25.0342C51.9046 25.0375 51.9067 25.0406 51.909 25.0435L51.7927 25.1385C51.7832 25.1268 51.775 25.1141 51.7683 25.1006L51.903 25.0342Z" fill="#FFEDE3"/>
<path d="M48.6238 27.7677C48.6238 27.7542 48.6238 27.7381 48.6179 27.7254C48.6179 27.6991 48.6128 27.6856 48.6128 27.6856" fill="#FFEDE3"/>
<path fill-rule="evenodd" clip-rule="evenodd" d="M48.6926 27.7117C48.692 27.6998 48.6907 27.6898 48.6891 27.6816C48.688 27.676 48.6869 27.6714 48.6858 27.6676C48.6853 27.6658 48.6848 27.6641 48.6843 27.6627L48.6837 27.6608L48.6834 27.66L48.6832 27.6596L48.6832 27.6594C48.6832 27.6594 48.6831 27.6592 48.6128 27.6856C48.5425 27.712 48.5425 27.7119 48.5425 27.7119L48.5424 27.7116L48.5423 27.7113L48.5421 27.7107L48.5418 27.7097L48.5414 27.7086C48.5414 27.7086 48.5414 27.7085 48.5414 27.7086C48.5414 27.7086 48.5416 27.7089 48.5418 27.7097C48.5422 27.7119 48.5428 27.7171 48.5428 27.7254V27.742L48.5484 27.754C48.5485 27.7552 48.5486 27.7568 48.5487 27.7591C48.5488 27.7616 48.5488 27.7642 48.5488 27.7677H48.6989C48.6989 27.7671 48.6989 27.7663 48.6989 27.7655C48.699 27.7562 48.6992 27.7345 48.6926 27.7117Z" fill="#FFEDE3"/>
<path d="M51.8509 25.091C51.8449 25.0837 51.8398 25.0758 51.8357 25.0674C51.8344 25.0646 51.8326 25.062 51.8305 25.0598" fill="#FFEDE3"/>
<path fill-rule="evenodd" clip-rule="evenodd" d="M51.9031 25.0345C51.8987 25.0253 51.893 25.0169 51.8862 25.0094L51.7749 25.1101C51.7723 25.1072 51.7701 25.104 51.7683 25.1006C51.7682 25.1002 51.7679 25.0998 51.7678 25.0995L51.7683 25.1006C51.775 25.1141 51.7832 25.1268 51.7927 25.1385L51.909 25.0435C51.9067 25.0407 51.9047 25.0377 51.9031 25.0345Z" fill="#FFEDE3"/>
<path fill-rule="evenodd" clip-rule="evenodd" d="M17.4536 43.1157L16.1798 42.9152L15.9987 44.0643L15.0379 43.913L14.5866 46.7753L17.0256 47.1398V50.2674C17.0256 50.3513 17.0936 50.4192 17.1775 50.4192H17.8188C17.9027 50.4192 17.9707 50.3513 17.9707 50.2674V47.2811L38.9518 50.4167L39.2784 48.3438L36.1039 47.2289L34.9099 47.041L35.091 45.8919L33.8172 45.6915L33.6361 46.8405L32.9518 46.7327L33.1328 45.5838L31.859 45.3833L31.678 46.5322L30.9934 46.4245L31.1744 45.2762L29.9006 45.0757L29.7196 46.224L29.036 46.1164L29.2171 44.9671L27.9433 44.7666L27.7622 45.9159L27.0778 45.8082L27.2588 44.6595L25.985 44.459L25.804 45.6077L25.1195 45.4999L25.3005 44.3513L24.0267 44.1508L23.8457 45.2994L23.1604 45.1916L23.3414 44.0429L22.0676 43.8424L21.8866 44.9911L21.203 44.8834L21.384 43.7347L20.1102 43.5342L19.9292 44.6829L19.0759 44.5486L19.2591 43.4158L17.9826 43.2096L17.7985 44.3476L17.2725 44.2648L17.4536 43.1157Z" fill="#FFEDE3"/>
<path d="M60.4777 23.3707C60.0794 22.8267 60.0405 22.8627 60.4777 23.3707V23.3707Z" fill="#FFEDE3"/>
<path d="M60.4954 23.3953C60.4901 23.387 60.4842 23.3791 60.4776 23.3717L60.4954 23.3953Z" fill="#FFEDE3"/>
<path fill-rule="evenodd" clip-rule="evenodd" d="M44.5115 10.2592C44.3234 8.74149 43.0284 7.56676 41.4589 7.56676C39.76 7.56676 38.3827 8.94316 38.3827 10.641C38.3827 11.6801 38.8985 12.5988 39.6882 13.1552L39.6882 21.4132C39.6882 21.4132 39.7722 23.5701 40.4466 24.8961C41.121 26.2221 41.2797 30.201 41.2347 32.6529C41.1898 35.1048 38.8034 36.2036 37.0049 36.0027C35.2064 35.8018 33.3833 37.104 32.6614 39.2414C32.4499 39.8665 32.3687 40.5282 32.4228 41.1858C32.4769 41.8434 32.6652 42.483 32.9761 43.0651C33.9195 40.2775 36.87 39.2897 39.0299 39.1795C41.1898 39.0693 42.6073 37.6738 43.7094 36.3478C44.8113 35.0218 44.6315 25.7694 44.6315 25.7694C44.6315 25.7694 44.8326 27.8517 44.8326 32.7453C44.8326 37.3895 50.0593 40.5676 53.2766 42.5238C55.6301 43.9548 55.7381 46.2291 55.6963 48.7961C55.6732 50.2121 55.6491 51.6939 56.0052 53.0822C56.9834 56.8949 60.6974 56.7288 62.9922 56.187C65.287 55.6452 65.5203 52.3395 63.8677 49.9461C62.2151 47.5527 59.7855 49.1034 59.7855 49.1034C61.6069 48.7312 62.2465 50.7846 62.2813 51.7664C62.3161 52.7482 61.002 53.3908 59.3469 52.4447C58.1231 51.7451 58.2267 49.3314 58.3377 46.7441C58.3769 45.8323 58.4169 44.8988 58.4001 44.0113C58.3438 41.0382 56.3816 39.4787 53.7958 37.4237C53.4195 37.1247 53.0301 36.8152 52.6314 36.4893C50.698 34.9149 49.6282 31.9509 49.0862 29.8975C50.4791 34.1146 54.5342 37.7789 58.7403 38.9311C60.7926 39.4925 62.724 40.2677 64.8906 43.68C67.0572 47.0923 68.3476 47.1365 71.1948 47.0956C73.0788 47.0685 75.0703 47.7879 75.2525 49.9478C75.4535 52.3311 71.7208 52.2861 71.7208 52.2861C76.7829 55.5011 78.0885 51.4968 78.2895 48.8227C78.4906 46.1487 75.9931 44.6616 73.0688 44.6404C70.1446 44.6192 69.0638 41.7628 69.0638 41.7628C69.0638 41.7628 67.401 36.3198 63.1712 35.9128C59.5547 35.5737 53.8309 27.8762 52.2479 25.6541C53.8606 27.7143 58.4256 31.8042 61.9335 31.6448C65.1953 31.4928 66.4186 32.7341 68.24 34.5823C68.5915 34.9389 68.9652 35.3182 69.3802 35.7144C71.9456 38.1638 75.0268 38.8845 78.2446 38.5674C81.4623 38.2503 82.9698 33.2557 82.0918 29.7296C81.2138 26.2035 78.4482 26.2687 76.8728 27.1013C75.2974 27.9339 75.792 31.6431 75.792 31.6431C75.9973 30.4324 76.5971 28.9682 77.8145 29.0369C79.0318 29.1056 79.8649 31.2167 79.2566 32.7911C78.6484 34.3655 75.1617 35.7127 72.6184 31.8687C70.075 28.0246 67.8914 26.9877 61.3015 27.0572C54.7115 27.1268 48.3218 17.4115 48.3218 17.4115C52.8244 17.6028 57.7763 19.6809 60.4777 23.3707C61.3405 24.4007 62.4492 25.1967 63.7014 25.6848C64.9536 26.1728 66.3087 26.3374 67.6414 26.1631C68.974 25.9889 70.2412 25.4815 71.3256 24.6879C72.41 23.8943 73.2766 22.8402 73.8452 21.6231C74.4137 20.406 74.6659 19.0652 74.5784 17.7248C74.4909 16.3844 74.0664 15.0878 73.3444 13.9548C72.6224 12.8219 71.626 11.8893 70.4476 11.2433C69.2692 10.5973 67.9468 10.2588 66.6027 10.2592H44.5115ZM52.2479 25.6541C52.104 25.474 51.9714 25.2851 51.8509 25.0886L51.8562 25.0963C51.9108 25.1754 52.0437 25.368 52.2479 25.6541ZM48.6263 27.7686C48.6984 28.4933 48.8527 29.2075 49.0862 29.8975C48.8053 28.8411 48.6679 28.0246 48.6263 27.7686ZM43.4798 10.6411C43.4798 11.7566 42.575 12.6608 41.4589 12.6608C40.3428 12.6608 39.4381 11.7566 39.4381 10.6411C39.4381 9.52572 40.3428 8.6215 41.4589 8.6215C42.575 8.6215 43.4798 9.52572 43.4798 10.6411Z" fill="#FFEDE3"/>
</svg>
