<svg width="55" height="55" viewBox="0 0 55 55" fill="none" xmlns="http://www.w3.org/2000/svg">
<circle cx="27.5701" cy="27.4802" r="27.1677" fill="#141414"/>
<g clip-path="url(#clip0_953_378)">
<path fill-rule="evenodd" clip-rule="evenodd" d="M20.8602 19.6689C18.9099 18.9862 18.14 17.2283 17.9257 16.1386C17.4131 13.5317 19.3943 11.7081 21.9195 11.4414C24.4446 11.1747 25.5427 12.5928 25.7414 12.915C26.3038 13.8266 26.3256 15.0921 26.3256 16.2756C26.8096 15.6681 26.8659 14.3542 26.6119 13.2216C28.5828 13.3249 29.6686 13.8391 30.7773 14.726C31.924 15.6434 32.2835 16.2019 33.048 20.1008C33.6139 22.9868 33.4044 28.3105 34.7353 30.1333C36.0662 31.9561 39.1197 34.0258 39.8423 29.5808C40.1051 27.964 40.4117 26.0775 40.9161 24.9847C41.8335 22.9971 43.5695 22.431 47.7192 22.032C50.0626 21.8067 50.0499 19.4316 50.0429 18.1304C50.0425 18.0628 50.0422 17.9981 50.0422 17.9368C52.9862 20.8419 49.814 25.1443 45.9237 25.6231C42.9324 25.9913 43.0715 28.0609 43.2108 30.1333C43.2618 30.8918 43.3128 31.6506 43.2104 32.3265C42.8282 34.8493 42.4858 35.6245 40.2314 36.2828C41.1734 36.3959 45.695 40.0249 50.9101 40.7184C56.2762 41.432 62.3587 39.2235 64.7496 40.2811C69.4641 42.3665 69.4473 42.6552 73.5703 42.018C71.5062 44.2351 68.8231 44.41 65.1642 43.6043C61.5052 42.7986 53.9638 44.4622 49.3684 44.2832C44.773 44.1042 41.5704 41.5939 37.4201 39.9287C33.2699 38.2634 31.0554 36.0633 29.1453 34.4638C28.3372 38.367 42.7059 44.5879 47.7192 48.5497C39.1512 49.5639 34.696 44.9003 29.1453 41.8119C23.5946 38.7235 23.9532 37.3346 23.9532 34.8216C18.6759 45.3355 27.6944 40.9839 25.9748 49.5639C25.283 53.4093 22.3999 54.4746 20.3648 58.6452C19.1237 54.7547 23.6493 51.703 23.922 47.6143C23.922 47.3201 23.922 46.6658 23.922 46.3906C23.8174 46.3906 22.4162 46.3906 21.8717 46.3906C20.0806 45.0539 16.4133 43.8861 17.0465 41.8119C17.6797 39.7376 17.7333 38.8055 19.765 35.1006C18.3246 36.0288 16.0968 38.8867 13.6724 41.8119C11.248 44.7371 10.7689 45.2814 5.563 46.4793C3.1092 47.0439 -6.20525 46.708 -7.00755 48.5497C-5.9865 43.0257 -0.857124 45.6421 6.58354 41.8119C10.7791 39.6521 13.1343 35.7971 14.3935 34.4638C16.2689 32.4781 22.0813 29.5604 19.551 25.5563C19.551 33.4829 12.3325 33.1661 9.47681 31.6066C6.62112 30.0472 5.13663 27.741 5.70218 23.2118C6.40264 17.6021 11.7977 15.1823 16.752 14.4509C16.697 15.9577 17.9257 19.6689 20.8602 19.6689ZM25.0154 14.726C25.2153 17.0398 23.9991 19.3019 21.0678 18.3743C19.5071 17.8804 18.3908 15.1375 20.2183 13.4999C21.6123 12.2508 24.8155 12.4123 25.0154 14.726Z" fill="#FFEDE3"/>
</g>
<g clip-path="url(#clip1_953_378)">
<rect width="43.4879" height="43.4879" rx="21.7439" transform="matrix(-1 0 0 1 49.3145 5.73633)" fill="#FFEDE3"/>
<path d="M31.8316 18.6589C32.4624 19.2375 37.2658 17.6326 35.0769 13.0857C34.2727 11.4152 31.9804 11.2718 30.7849 12.2892C28.7279 13.763 29.5601 15.309 29.7789 16.4549C29.9978 17.6008 31.2342 18.111 31.8316 18.6589Z" fill="#141414"/>
<path fill-rule="evenodd" clip-rule="evenodd" d="M18.5651 17.9368C17.9257 16.6811 18.14 17.2283 17.9257 16.1386C17.4131 13.5317 19.3943 11.7081 21.9194 11.4414C24.4446 11.1747 25.5427 12.5928 25.7414 12.915C26.3038 13.8266 26.3256 15.0921 26.3256 16.2756C26.8096 15.6681 26.8659 14.3542 26.6119 13.2216C28.5828 13.3249 29.6686 13.8391 30.7773 14.726C31.924 15.6434 32.2835 16.2019 33.048 20.1008C33.6139 22.9868 33.4044 28.3105 34.7353 30.1333C36.0662 31.9561 39.1197 34.0258 39.8423 29.5808C40.1051 27.964 40.4117 26.0775 40.9161 24.9847C41.8335 22.9971 43.5695 22.431 47.7192 22.032C50.0626 21.8067 50.0499 19.4316 50.0429 18.1304C50.0425 18.0628 50.0422 17.9981 50.0422 17.9368C52.9862 20.8419 49.814 25.1443 45.9237 25.6231C42.9324 25.9913 43.0715 28.0609 43.2108 30.1333C43.2618 30.8918 43.3128 31.6506 43.2104 32.3265C42.8282 34.8493 42.4858 35.6245 40.2314 36.2828C41.1734 36.3959 45.695 40.0249 50.9101 40.7184C56.2762 41.432 62.3587 39.2235 64.7496 40.2811C69.4641 42.3665 69.4473 42.6552 73.5703 42.018C71.5062 44.2351 68.8231 44.41 65.1642 43.6043C61.5052 42.7986 53.9638 44.4622 49.3684 44.2832C44.773 44.1042 41.5704 41.5939 37.4201 39.9287C33.2698 38.2634 31.0554 36.0633 29.1453 34.4638C28.3372 38.367 42.7059 44.5879 47.7192 48.5497C39.1512 49.5639 34.6959 44.9003 29.1453 41.8119C23.5946 38.7235 23.9532 37.3346 23.9532 34.8216C18.6759 45.3355 24.3044 42.3186 30.6934 48.5497C37.0824 54.7808 22.3999 54.4746 20.3648 58.6452C19.3121 55.3452 24.964 48.2369 21.8717 46.3906C18.7794 44.5443 16.4133 43.8861 17.0465 41.8119C17.6797 39.7376 17.7333 38.8055 19.765 35.1006C18.3246 36.0288 16.0968 38.8867 13.6724 41.8119C11.248 44.7371 10.7689 45.2814 5.563 46.4793C3.10919 47.0439 -6.20525 46.708 -7.00755 48.5497C-5.9865 43.0257 -0.857132 45.6421 6.58353 41.8119C10.7791 39.6521 13.1343 35.7971 14.3935 34.4638C16.2689 32.4781 22.0813 29.5604 19.551 25.5563C19.551 33.4829 12.3325 33.1661 9.47681 31.6066C6.62112 30.0472 5.13662 27.741 5.70218 23.2118C6.40263 17.6021 12.0143 15.1406 16.9686 14.4092C16.9136 15.916 17.03 16.896 18.5651 17.9368Z" fill="#141414"/>
<path d="M21.3155 17.7565C23.581 18.4734 24.521 16.725 24.3665 14.9368C24.2121 13.1485 21.7363 13.0237 20.6589 13.9891C19.2464 15.2548 20.1093 17.3747 21.3155 17.7565Z" fill="#FFEDE3"/>
<path d="M32.4962 17.4395C33.3731 16.9607 34.3012 16.3181 34.1714 14.9425C34.0415 13.5668 31.8712 12.3338 30.5766 14.82C31.7149 15.7569 32.2403 16.6999 32.4962 17.4395Z" fill="#FFEDE3"/>
</g>
<defs>
<clipPath id="clip0_953_378">
<rect width="35.9201" height="19.8385" fill="white" transform="translate(16.3789 14.1094)"/>
</clipPath>
<clipPath id="clip1_953_378">
<rect width="43.4879" height="43.4879" rx="21.7439" transform="matrix(-1 0 0 1 49.3145 5.73633)" fill="white"/>
</clipPath>
</defs>
</svg>
