<svg width="1131" height="874" viewBox="0 0 1131 874" fill="none" xmlns="http://www.w3.org/2000/svg">
<path d="M562.3 551.292C443.238 545.091 346.083 529.531 300.786 509.285C158.501 445.685 107.955 365.196 159.74 234.807L162.314 228.544C171.8 206.305 177.96 182.493 179.435 158.343C180.91 134.194 181.736 107.885 173.191 85.2415C161.452 53.8175 142.265 17.8214 109.251 8.19929C49.0282 -16.8154 -9.06429 26.5573 1.80409 74.0989C16.6859 63.0443 31.2936 74.6002 49.028 69.8536C65.5049 65.4748 86.5792 43.616 103.114 45.227C118.828 46.7581 136.35 48.0462 147.646 48.9057C163.703 50.7216 160.545 69.7394 160.915 93.2712C162.806 104.864 164.708 120.263 165.013 130.303C166.143 159.214 159.519 188.191 147.45 214.387C140.252 229.28 133.316 244.626 128.235 260.415C101.134 339.787 117.229 419.926 175.066 481.277C272.689 585.782 412.665 585.674 549.925 608.135C798.242 645.529 1076.89 878.759 1164.4 873.634C1194.34 865.154 722.528 571.149 562.3 551.292Z" fill="#7000FF"/>
</svg>
