<svg width="577" height="431" viewBox="0 0 577 431" fill="none" xmlns="http://www.w3.org/2000/svg">
<path d="M575.992 0.833984C575.412 25.834 570.992 50.734 565.242 74.914C537.982 188.574 466.403 288.914 371.473 356.094C340.393 378.464 306.742 398.094 270.762 411.474C214.992 432.534 151.033 438.394 94.7625 415.704C61.2525 402.194 30.8825 378.364 13.7625 346.064C-1.1475 318.454 -4.30747 283.924 10.5425 255.624C24.1625 230.454 47.9725 207.194 77.8625 204.884C101.653 202.984 135.28 212.543 151.84 229.033C163.84 241.223 163.363 258.384 164.903 275.764C165.433 281.49 164.396 287.252 161.903 292.434C166.483 281.854 131.791 277.112 127.031 267.132C114.771 242.672 115.552 227.377 88.2922 223.557C55.2922 219.047 36.1125 231.224 22.2425 259.104C7.24254 289.674 16.5725 325.374 37.5325 350.734C84.8125 408.254 169.743 414.594 236.253 390.734C277.353 376.734 314.872 353.074 348.522 325.844C380.448 300.361 408.966 270.88 433.372 238.124C483.062 170.744 514.463 88.934 516.083 5.12396V3.414V2.65399V2.32397C515.843 2.02397 576.083 0.954004 576.083 0.854004L575.992 0.833984Z" fill="#FF5700"/>
</svg>
