<svg width="31" height="31" viewBox="0 0 31 31" fill="none" xmlns="http://www.w3.org/2000/svg">
<path d="M15.476 0.0166016C7.12153 0.0166016 0.316406 6.82173 0.316406 15.1762C0.316406 23.5306 7.12153 30.3358 15.476 30.3358C23.8304 30.3358 30.6356 23.5306 30.6356 15.1762C30.6356 6.82173 23.8304 0.0166016 15.476 0.0166016ZM15.476 3.04852C22.1919 3.04852 27.6036 8.4603 27.6036 15.1762C27.6036 21.2619 23.1548 26.2624 17.3236 27.1499V18.7914H20.8529L21.4066 15.2058H17.3236V13.2457C17.3236 11.7555 17.809 10.4329 19.2037 10.4329H21.4421V7.30326C21.048 7.25021 20.2161 7.1345 18.6441 7.1345C15.3605 7.1345 13.436 8.86875 13.436 12.8193V15.2058H10.0606V18.7914H13.436V27.1203C7.69956 26.153 3.34832 21.1949 3.34832 15.1762C3.34832 8.4603 8.7601 3.04852 15.476 3.04852Z" fill="#FFEDE3"/>
</svg>
