<svg width="29" height="28" viewBox="0 0 29 28" fill="none" xmlns="http://www.w3.org/2000/svg">
<path d="M8.18767 0.30957C3.85338 0.30957 0.327148 3.66788 0.327148 7.79578V19.7737C0.327148 23.9016 3.85338 27.2599 8.18767 27.2599H20.7645C25.0988 27.2599 28.625 23.9016 28.625 19.7737V7.79578C28.625 3.66788 25.0988 0.30957 20.7645 0.30957H8.18767ZM8.18767 3.30405H20.7645C23.3648 3.30405 25.4808 5.31934 25.4808 7.79578V19.7737C25.4808 22.2502 23.3648 24.2654 20.7645 24.2654H8.18767C5.58741 24.2654 3.47136 22.2502 3.47136 19.7737V7.79578C3.47136 5.31934 5.58741 3.30405 8.18767 3.30405ZM22.3366 4.8013C21.9197 4.8013 21.5198 4.95904 21.225 5.23983C20.9301 5.52062 20.7645 5.90144 20.7645 6.29854C20.7645 6.69563 20.9301 7.07646 21.225 7.35725C21.5198 7.63804 21.9197 7.79578 22.3366 7.79578C22.7536 7.79578 23.1534 7.63804 23.4482 7.35725C23.7431 7.07646 23.9087 6.69563 23.9087 6.29854C23.9087 5.90144 23.7431 5.52062 23.4482 5.23983C23.1534 4.95904 22.7536 4.8013 22.3366 4.8013ZM14.4761 6.29854C10.1418 6.29854 6.61556 9.65685 6.61556 13.7847C6.61556 17.9126 10.1418 21.271 14.4761 21.271C18.8104 21.271 22.3366 17.9126 22.3366 13.7847C22.3366 9.65685 18.8104 6.29854 14.4761 6.29854ZM14.4761 9.29302C17.0763 9.29302 19.1924 11.3083 19.1924 13.7847C19.1924 16.2612 17.0763 18.2765 14.4761 18.2765C11.8758 18.2765 9.75977 16.2612 9.75977 13.7847C9.75977 11.3083 11.8758 9.29302 14.4761 9.29302Z" fill="#FFEDE3"/>
</svg>
