<svg width="31" height="30" viewBox="0 0 31 30" fill="none" xmlns="http://www.w3.org/2000/svg">
<path d="M22.4671 1.56836H8.96168C5.23227 1.56836 2.20898 4.59165 2.20898 8.32106V21.8265C2.20898 25.5559 5.23227 28.5792 8.96168 28.5792H22.4671C26.1965 28.5792 29.2198 25.5559 29.2198 21.8265V8.32106C29.2198 4.59165 26.1965 1.56836 22.4671 1.56836Z" stroke="#FFEDE3" stroke-width="2.70108" stroke-linecap="round" stroke-linejoin="round"/>
<path d="M21.115 14.223C21.2817 15.347 21.0897 16.4949 20.5664 17.5035C20.0431 18.5121 19.215 19.33 18.2001 19.8408C17.1851 20.3517 16.0349 20.5295 14.9131 20.349C13.7912 20.1685 12.7549 19.6388 11.9514 18.8353C11.1479 18.0319 10.6183 16.9955 10.4378 15.8737C10.2572 14.7518 10.4351 13.6016 10.9459 12.5867C11.4568 11.5717 12.2746 10.7437 13.2832 10.2204C14.2918 9.69703 15.4397 9.50505 16.5637 9.67172C17.7102 9.84173 18.7716 10.376 19.5912 11.1955C20.4108 12.0151 20.945 13.0765 21.115 14.223Z" stroke="#FFEDE3" stroke-width="2" stroke-linecap="round" stroke-linejoin="round"/>
<path d="M23.1406 7.64453H23.1527" stroke="#FFEDE3" stroke-width="2.70108" stroke-linecap="round" stroke-linejoin="round"/>
</svg>
