<svg width="30" height="28" viewBox="0 0 30 28" fill="none" xmlns="http://www.w3.org/2000/svg">
<path d="M8.69646 0.585938C4.36217 0.585938 0.835938 3.94425 0.835938 8.07215V20.0501C0.835938 24.178 4.36217 27.5363 8.69646 27.5363H21.2733C25.6076 27.5363 29.1338 24.178 29.1338 20.0501V8.07215C29.1338 3.94425 25.6076 0.585938 21.2733 0.585938H8.69646ZM8.69646 3.58042H21.2733C23.8735 3.58042 25.9896 5.59571 25.9896 8.07215V20.0501C25.9896 22.5265 23.8735 24.5418 21.2733 24.5418H8.69646C6.0962 24.5418 3.98015 22.5265 3.98015 20.0501V8.07215C3.98015 5.59571 6.0962 3.58042 8.69646 3.58042ZM22.8454 5.07766C22.4284 5.07766 22.0286 5.23541 21.7337 5.5162C21.4389 5.79698 21.2733 6.17781 21.2733 6.57491C21.2733 6.972 21.4389 7.35283 21.7337 7.63362C22.0286 7.9144 22.4284 8.07215 22.8454 8.07215C23.2623 8.07215 23.6622 7.9144 23.957 7.63362C24.2519 7.35283 24.4175 6.972 24.4175 6.57491C24.4175 6.17781 24.2519 5.79698 23.957 5.5162C23.6622 5.23541 23.2623 5.07766 22.8454 5.07766ZM14.9849 6.57491C10.6506 6.57491 7.12435 9.93322 7.12435 14.0611C7.12435 18.189 10.6506 21.5473 14.9849 21.5473C19.3192 21.5473 22.8454 18.189 22.8454 14.0611C22.8454 9.93322 19.3192 6.57491 14.9849 6.57491ZM14.9849 9.56939C17.5851 9.56939 19.7012 11.5847 19.7012 14.0611C19.7012 16.5376 17.5851 18.5528 14.9849 18.5528C12.3846 18.5528 10.2686 16.5376 10.2686 14.0611C10.2686 11.5847 12.3846 9.56939 14.9849 9.56939Z" fill="#FFEDE3"/>
</svg>
