<svg width="25" height="25" viewBox="0 0 25 25" fill="none" xmlns="http://www.w3.org/2000/svg">
<path d="M18.8495 15.7343V17.5667C18.8502 17.7368 18.8153 17.9052 18.747 18.0611C18.6787 18.2169 18.5786 18.3568 18.453 18.4718C18.3274 18.5868 18.1791 18.6744 18.0176 18.7289C17.8562 18.7834 17.6851 18.8036 17.5153 18.7883C15.6321 18.5841 13.8231 17.9418 12.2337 16.9131C10.7549 15.9754 9.50123 14.7241 8.56158 13.2483C7.52727 11.6549 6.88359 9.84068 6.6827 7.9527C6.66741 7.78379 6.68752 7.61356 6.74176 7.45283C6.796 7.29211 6.88318 7.14442 6.99775 7.01916C7.11231 6.89391 7.25175 6.79383 7.4072 6.72531C7.56264 6.65678 7.73068 6.62131 7.90061 6.62115H9.73665C10.0337 6.61824 10.3216 6.7232 10.5468 6.9165C10.772 7.10979 10.9191 7.37821 10.9607 7.67173C11.0382 8.25814 11.1819 8.83392 11.3891 9.38808C11.4714 9.6067 11.4892 9.8443 11.4404 10.0727C11.3916 10.3011 11.2782 10.5108 11.1137 10.6769L10.3364 11.4526C11.2077 12.9818 12.4763 14.2479 14.0085 15.1174L14.7858 14.3417C14.9522 14.1775 15.1622 14.0643 15.3911 14.0156C15.62 13.9669 15.8581 13.9846 16.0771 14.0668C16.6324 14.2736 17.2093 14.417 17.7969 14.4944C18.0942 14.5362 18.3657 14.6857 18.5598 14.9143C18.7538 15.1429 18.857 15.4348 18.8495 15.7343Z" stroke="#FFEDE3" stroke-width="1.87264" stroke-linecap="round" stroke-linejoin="round"/>
<circle cx="12.5081" cy="12.7815" r="11.2359" stroke="#FFEDE3" stroke-width="1.87264"/>
</svg>
