<svg width="34" height="34" viewBox="0 0 34 34" fill="none" xmlns="http://www.w3.org/2000/svg">
<path d="M25.8545 20.7101V23.1848C25.8554 23.4146 25.8083 23.642 25.7161 23.8525C25.6238 24.063 25.4886 24.2519 25.319 24.4072C25.1493 24.5625 24.9491 24.6808 24.731 24.7544C24.513 24.828 24.2819 24.8553 24.0526 24.8346C21.5092 24.5588 19.0661 23.6914 16.9195 22.3022C14.9224 21.0357 13.2293 19.3458 11.9602 17.3527C10.5633 15.2007 9.69403 12.7505 9.42272 10.2007C9.40207 9.97261 9.42923 9.74271 9.50249 9.52564C9.57574 9.30858 9.69348 9.10912 9.8482 8.93995C10.0029 8.77079 10.1913 8.63563 10.4012 8.54309C10.6111 8.45054 10.8381 8.40264 11.0676 8.40242H13.5472C13.9483 8.39848 14.3372 8.54025 14.6414 8.8013C14.9455 9.06234 15.1442 9.42486 15.2003 9.82127C15.305 10.6132 15.4991 11.3909 15.7789 12.1393C15.8901 12.4345 15.9142 12.7554 15.8482 13.0639C15.7823 13.3724 15.6292 13.6555 15.4069 13.8798L14.3572 14.9275C15.5339 16.9927 17.2472 18.7026 19.3165 19.8769L20.3662 18.8293C20.591 18.6075 20.8747 18.4547 21.1838 18.3889C21.4929 18.3231 21.8144 18.3471 22.1102 18.4581C22.8601 18.7374 23.6393 18.9311 24.4328 19.0355C24.8344 19.0921 25.201 19.2939 25.4632 19.6026C25.7253 19.9114 25.8646 20.3055 25.8545 20.7101Z" stroke="#FFEDE3" stroke-width="2" stroke-linecap="round" stroke-linejoin="round"/>
<circle cx="17.2886" cy="16.7222" r="15.089" stroke="#FFEDE3" stroke-width="2.7"/>
</svg>
